<svg xmlns="http://www.w3.org/2000/svg" viewBox="0 0 1024 1024"><defs><style>.cls-1{fill:#363436;}.cls-2{fill:#fff;}.cls-3{fill:#c33;}</style></defs><title>compsoc-profile</title><g id="profile"><g id="fill"><g id="top"><polygon id="bg-dark" class="cls-1" points="128 416 152 416 152 440 332 440 332 476 368 476 368 512 404 512 404 476 440 476 440 440 584 440 584 476 620 476 620 512 692 512 692 476 728 476 728 440 824 440 824 440 824 368 872 368 872 344 896 344 896 320 920 320 920 248 896 248 896 224 872 224 872 200 752 200 752 224 704 224 704 200 656 200 656 224 632 224 632 248 584 248 584 224 560 224 560 200 512 200 512 224 488 224 488 248 464 248 464 224 440 224 440 200 344 200 344 224 320 224 320 248 296 248 296 224 272 224 272 200 152 200 152 224 128 224 128 248 104 248 104 392 128 392 128 416"/><g id="comp"><path id="p" class="cls-2" d="M752,392V224h96v24H776v48h72v24H776v72Zm96-144v48h24V248Z"/><path id="m" class="cls-2" d="M512,392V224h24v24h24v24H536V392Zm48-120v24h24v24h24V296h24V272H608v24H584V272ZM680,392V224H656v24H632v24h24V392Z"/><path id="o" class="cls-2" d="M416,224v24H344V224Zm-72,24H320V368h24Zm0,120v24h72V368Zm72,0h24V248H416Z"/><polygon id="c" class="cls-2" points="248 224 152 224 152 248 128 248 128 368 152 368 152 392 248 392 248 368 152 368 152 248 248 248 248 224"/></g></g><g id="bottom"><polygon id="bg-red" class="cls-3" points="80 692 80 764 116 764 116 800 332 800 332 764 368 764 368 728 404 728 404 764 440 764 440 800 620 800 620 764 656 764 656 728 692 728 692 764 728 764 728 800 944 800 944 692 908 692 908 656 836 656 836 584 944 584 944 476 908 476 908 440 728 440 728 476 692 476 692 512 620 512 620 476 584 476 584 440 440 440 440 476 404 476 404 512 368 512 368 476 332 476 332 440 152 440 152 476 116 476 116 512 80 512 80 620 116 620 116 692 80 692"/><g id="soc"><path id="c-2" data-name="c" class="cls-2" d="M728,512V692H692V512Zm144,0V476H728v36ZM728,692v36H872V692Z"/><path id="o-2" data-name="o" class="cls-2" d="M548,476v36H440V476ZM440,512H404V692h36Zm0,180v36H548V692Zm108,0h36V512H548Z"/><path id="s" class="cls-2" d="M296,512H152V476H296Zm-180,0v72h36V512ZM260,620V584H152v36Zm0,72h36V620H260Zm-144,0v36H260V692Z"/></g></g></g></g></svg>