<svg xmlns="http://www.w3.org/2000/svg" viewBox="0 0 1400 256"><defs><style>.cls-1{fill:#c33;}.cls-2{fill:#fff;}.cls-3{fill:#363436;}</style></defs><title>compsoc-horizontal-angular</title><g id="horizontal"><g id="angular"><g id="bottom"><polygon id="bg-red" class="cls-1" points="1059.56 223.88 1059.56 247.88 1155.56 247.88 1179.56 223.88 1251.56 223.88 1251.56 247.88 1347.56 247.88 1395.56 199.88 1395.56 175.88 1371.56 175.88 1371.56 151.88 1323.56 151.88 1323.56 103.88 1347.56 103.88 1395.56 55.88 1395.56 31.88 1371.56 31.88 1371.56 7.88 1251.56 7.88 1251.56 31.88 1227.56 31.88 1227.56 55.88 1179.56 55.88 1179.56 31.88 1155.56 31.88 1155.56 7.88 1059.56 7.88 1059.56 31.88 1035.56 31.88 1035.56 55.88 1011.56 55.88 1011.56 31.88 987.56 31.88 987.56 7.88 867.56 7.88 867.56 31.88 843.56 31.88 843.56 55.88 819.56 55.88 819.56 127.88 843.56 127.88 843.56 175.88 819.56 175.88 819.56 223.88 843.56 223.88 843.56 247.88 963.56 247.88 987.56 223.88 1059.56 223.88"/><g id="soc"><path id="c" class="cls-2" d="M1251.56,55.88v120h-24v-120Zm72,0,24-24h-96v24Zm-72,120v24h72l24-24Z"/><path id="o" class="cls-2" d="M1131.56,31.88v24h-72v-24Zm-72,24h-24v120h24Zm0,120v24h72v-24Zm72,0h24v-120h-24Z"/><path id="s" class="cls-2" d="M939.56,55.88h-72v-24h96Zm-96,0v48h24v-48Zm96,72v-24h-72v24Zm0,48h24v-48h-24Zm-72,0-24,24h96v-24Z"/></g></g><g id="top"><polygon id="bg-dark" class="cls-3" points="723.56 223.88 699.56 247.88 651.56 247.88 651.56 223.88 627.56 223.88 603.56 247.88 555.56 247.88 555.56 223.88 483.56 223.88 459.56 247.88 411.56 247.88 411.56 223.88 363.56 223.88 339.56 247.88 243.56 247.88 243.56 223.88 171.56 223.88 147.56 247.88 51.56 247.88 51.56 223.88 27.56 223.88 27.56 199.88 3.56 199.88 3.56 55.88 27.56 55.88 27.56 31.88 51.56 31.88 51.56 7.88 171.56 7.88 171.56 31.88 195.56 31.88 195.56 55.88 219.56 55.88 219.56 31.88 243.56 31.88 243.56 7.88 339.56 7.88 339.56 31.88 363.56 31.88 363.56 55.88 387.56 55.88 387.56 31.88 411.56 31.88 411.56 7.88 459.56 7.88 459.56 31.88 483.56 31.88 483.56 55.88 531.56 55.88 531.56 31.88 555.56 31.88 555.56 7.88 603.56 7.88 603.56 31.88 651.56 31.88 651.56 7.88 771.56 7.88 771.56 31.88 795.56 31.88 795.56 55.88 819.56 55.88 819.56 127.88 795.56 127.88 795.56 151.88 771.56 151.88 771.56 175.88 723.56 223.88"/><g id="comp"><path id="p" class="cls-2" d="M651.56,199.88v-168h96v24h-72v48h72v24h-72v48Zm96-144v48h24v-48Z"/><path id="m" class="cls-2" d="M411.56,199.88v-168h24v24h24v24h-24v96Zm48-120v24h24v24h24v-24h24v-24h-24v24h-24v-24Zm120,96v-144h-24v24h-24v24h24v120Z"/><path id="o-2" data-name="o" class="cls-2" d="M315.56,31.88v24h-72v-24Zm-72,24h-24v120h24Zm0,120v24h72v-24Zm72,0h24v-120h-24Z"/><polygon id="c-2" data-name="c" class="cls-2" points="147.56 31.88 51.56 31.88 51.56 55.88 27.56 55.88 27.56 175.88 51.56 175.88 51.56 199.88 123.56 199.88 147.56 175.88 51.56 175.88 51.56 55.88 123.56 55.88 147.56 31.88"/></g></g></g></g></svg>