<svg xmlns="http://www.w3.org/2000/svg" viewBox="0 0 1400 256"><defs><style>.cls-1{fill:#c33;}.cls-2{fill:#363436;}</style></defs><title>compsoc-horizontal-no-fill</title><g id="horizontal"><g id="nofill"><g id="bottom"><rect class="cls-1" x="1060" y="56" width="72" height="120"/><rect class="cls-1" x="1036" y="32" width="24" height="24"/><rect class="cls-1" x="1228" y="32" width="24" height="24"/><rect class="cls-1" x="844" y="32" width="24" height="24"/><polygon class="cls-1" points="1396 104 1396 32 1372 32 1372 8 1252 8 1252 32 1348 32 1348 56 1252 56 1252 176 1348 176 1348 200 1252 200 1252 176 1228 176 1228 56 1180 56 1180 32 1156 32 1156 8 1060 8 1060 32 1132 32 1132 56 1156 56 1156 176 1132 176 1132 200 1060 200 1060 176 1036 176 1036 56 1012 56 1012 32 988 32 988 8 868 8 868 32 964 32 964 56 868 56 868 104 940 104 940 128 964 128 964 176 940 176 940 200 844 200 844 176 820 176 820 224 844 224 844 248 988 248 988 224 1012 224 1012 200 1036 200 1036 224 1060 224 1060 248 1180 248 1180 224 1204 224 1204 200 1228 200 1228 224 1252 224 1252 248 1396 248 1396 176 1372 176 1372 152 1324 152 1324 104 1396 104"/><polygon class="cls-1" points="940 128 868 128 868 104 844 104 844 56 820 56 820 128 844 128 844 176 940 176 940 128"/></g><g id="top"><polygon class="cls-2" points="436 56 460 56 460 80 484 80 484 104 508 104 508 80 532 80 532 56 484 56 484 32 460 32 460 8 412 8 412 32 436 32 436 56"/><rect class="cls-2" x="244" y="56" width="72" height="120"/><rect class="cls-2" x="220" y="32" width="24" height="24"/><rect class="cls-2" x="532" y="32" width="24" height="24"/><rect class="cls-2" x="676" y="56" width="72" height="48"/><polygon class="cls-2" points="796 56 796 32 772 32 772 8 652 8 652 32 748 32 748 56 772 56 772 104 748 104 748 128 676 128 676 200 652 200 652 32 604 32 604 8 556 8 556 32 580 32 580 200 556 200 556 80 532 80 532 104 508 104 508 128 484 128 484 104 460 104 460 80 436 80 436 200 412 200 412 32 388 32 388 56 364 56 364 32 340 32 340 8 244 8 244 32 316 32 316 56 340 56 340 176 316 176 316 200 244 200 244 176 220 176 220 56 196 56 196 32 172 32 172 8 52 8 52 32 148 32 148 56 52 56 52 176 148 176 148 200 52 200 52 176 28 176 28 56 4 56 4 200 28 200 28 224 52 224 52 248 196 248 196 200 220 200 220 224 244 224 244 248 364 248 364 224 412 224 412 248 484 248 484 176 532 176 532 224 556 224 556 248 628 248 628 224 652 224 652 248 724 248 724 176 772 176 772 152 796 152 796 128 820 128 820 56 796 56"/><rect class="cls-2" x="28" y="32" width="24" height="24"/></g></g></g></svg>